<?xml version="1.0" encoding="UTF-8" standalone="no"?>
<!DOCTYPE svg PUBLIC "-//W3C//DTD SVG 1.1//EN" "http://www.w3.org/Graphics/SVG/1.1/DTD/svg11.dtd">
<svg width="100%" height="100%" viewBox="0 0 1657 1657" version="1.1" xmlns="http://www.w3.org/2000/svg" xmlns:xlink="http://www.w3.org/1999/xlink" xml:space="preserve" xmlns:serif="http://www.serif.com/" style="fill-rule:evenodd;clip-rule:evenodd;stroke-linejoin:round;stroke-miterlimit:2;">
    <g transform="matrix(1,0,0,1,5,-2)">
        <circle cx="823.219" cy="830.187" r="826.378" style="fill:rgb(20,71,230);"/>
    </g>
    <g transform="matrix(1.32841,0,0,1.32841,-192.756,69.1657)">
        <g transform="matrix(600,0,0,600,305.966,943.271)">
            <path d="M0.071,-0.002C0.102,0.002 0.154,0.007 0.222,0.007C0.345,0.007 0.424,-0.014 0.472,-0.056C0.511,-0.088 0.537,-0.135 0.537,-0.195C0.537,-0.288 0.472,-0.344 0.401,-0.362L0.401,-0.364C0.474,-0.391 0.513,-0.448 0.513,-0.51C0.513,-0.567 0.485,-0.611 0.443,-0.636C0.397,-0.668 0.341,-0.679 0.25,-0.679C0.181,-0.679 0.11,-0.673 0.071,-0.665L0.071,-0.002ZM0.193,-0.583C0.206,-0.586 0.227,-0.588 0.263,-0.588C0.341,-0.588 0.389,-0.559 0.389,-0.496C0.389,-0.439 0.341,-0.399 0.256,-0.399L0.193,-0.399L0.193,-0.583ZM0.193,-0.309L0.254,-0.309C0.339,-0.309 0.407,-0.277 0.407,-0.199C0.407,-0.116 0.337,-0.086 0.258,-0.086C0.23,-0.086 0.209,-0.086 0.193,-0.089L0.193,-0.309Z" style="fill:white;fill-rule:nonzero;"/>
        </g>
        <g transform="matrix(600,0,0,600,651.566,943.271)">
            <path d="M0.014,-0.487L0.158,-0L0.273,-0L0.335,-0.198C0.349,-0.246 0.362,-0.294 0.372,-0.354L0.374,-0.354C0.385,-0.295 0.396,-0.249 0.411,-0.198L0.469,-0L0.583,-0L0.736,-0.487L0.615,-0.487L0.561,-0.271C0.548,-0.214 0.537,-0.161 0.529,-0.108L0.527,-0.108C0.516,-0.161 0.503,-0.214 0.488,-0.271L0.427,-0.487L0.327,-0.487L0.264,-0.265C0.25,-0.215 0.234,-0.161 0.224,-0.108L0.222,-0.108C0.213,-0.161 0.202,-0.214 0.191,-0.266L0.14,-0.487L0.014,-0.487Z" style="fill:white;fill-rule:nonzero;"/>
        </g>
    </g>
</svg>
